<?xml version="1.0" encoding="UTF-8" standalone="no"?>
<!-- Created with Inkscape (http://www.inkscape.org/) -->

<svg
   xmlns:dc="http://purl.org/dc/elements/1.1/"
   xmlns:cc="http://creativecommons.org/ns#"
   xmlns:rdf="http://www.w3.org/1999/02/22-rdf-syntax-ns#"
   xmlns:svg="http://www.w3.org/2000/svg"
   xmlns="http://www.w3.org/2000/svg"
   xmlns:sodipodi="http://sodipodi.sourceforge.net/DTD/sodipodi-0.dtd"
   xmlns:inkscape="http://www.inkscape.org/namespaces/inkscape"
   version="1.1"
   id="svg944"
   width="216"
   height="233"
   viewBox="0 0 216 233"
   sodipodi:docname="patas2svg.svg"
   inkscape:version="0.92.3 (2405546, 2018-03-11)">
  <metadata
     id="metadata950">
    <rdf:RDF>
      <cc:Work
         rdf:about="">
        <dc:format>image/svg+xml</dc:format>
        <dc:type
           rdf:resource="http://purl.org/dc/dcmitype/StillImage" />
        <dc:title />
      </cc:Work>
    </rdf:RDF>
  </metadata>
  <defs
     id="defs948" />
  <sodipodi:namedview
     pagecolor="#ffffff"
     bordercolor="#666666"
     borderopacity="1"
     objecttolerance="10"
     gridtolerance="10"
     guidetolerance="10"
     inkscape:pageopacity="0"
     inkscape:pageshadow="2"
     inkscape:window-width="1862"
     inkscape:window-height="985"
     id="namedview946"
     showgrid="false"
     inkscape:zoom="4.0515021"
     inkscape:cx="93.43"
     inkscape:cy="131.58657"
     inkscape:window-x="-8"
     inkscape:window-y="-8"
     inkscape:window-maximized="1"
     inkscape:current-layer="svg944" />
  <g
     id="g1650"
     inkscape:export-xdpi="288"
     inkscape:export-ydpi="288"
     transform="matrix(0.05313595,0,0,0.05632447,77.550437,80.136713)">
    <ellipse
       transform="matrix(-0.70648954,-0.70772348,-0.68147488,0.73184151,0,0)"
       ry="10.679836"
       rx="9.0590401"
       cy="-11.901689"
       cx="-225.03044"
       id="path1497-0"
       style="fill:#000000;fill-opacity:1;stroke:none;stroke-width:1.88060665;stroke-miterlimit:4;stroke-dasharray:none;stroke-dashoffset:0;stroke-opacity:1" />
    <ellipse
       transform="matrix(-0.66376364,-0.7479424,-0.63767466,0.7703058,0,0)"
       ry="13.738732"
       rx="11.606622"
       cy="-32.51215"
       cx="-205.06859"
       id="path1497-2-1"
       style="fill:#000000;fill-opacity:1;stroke:none;stroke-width:2.41435337;stroke-miterlimit:4;stroke-dasharray:none;stroke-dashoffset:0;stroke-opacity:1" />
    <ellipse
       transform="matrix(-0.94276753,-0.33345073,-0.18540152,0.98266285,0,0)"
       ry="13.738732"
       rx="11.606622"
       cy="72.099594"
       cx="-154.63116"
       id="path1497-2-4-4"
       style="fill:#000000;fill-opacity:1;stroke:none;stroke-width:2.41435337;stroke-miterlimit:4;stroke-dasharray:none;stroke-dashoffset:0;stroke-opacity:1" />
    <ellipse
       transform="matrix(-0.96217295,0.27243938,0.29990033,0.95397054,0,0)"
       ry="11.106282"
       rx="9.3089647"
       cy="162.42796"
       cx="-66.21376"
       id="path1497-6-4"
       style="fill:#000000;fill-opacity:1;stroke:none;stroke-width:1.94405985;stroke-miterlimit:4;stroke-dasharray:none;stroke-dashoffset:0;stroke-opacity:1" />
    <path
       inkscape:connector-curvature="0"
       id="path1546-6"
       d="m 154.72953,161.03873 -2.10855,-3.191 -0.86822,-3.25482 -0.31008,-2.16988 -0.31008,-2.2337 -0.43411,-1.78696 -0.43411,-1.85078 -1.11629,-2.36135 -2.97677,-2.5528 -3.907,-2.10606 -4.89927,-0.82966 -5.08531,0.51056 -3.28684,2.04224 -2.17056,2.16988 -1.9225,2.87191 -1.36435,1.9146 -3.65894,2.5528 -5.33337,3.31864 -3.28686,2.36134 -1.36435,2.99954 -0.12403,4.85032 1.86048,2.61663 1.98451,2.42516 3.1008,2.04224 3.53491,1.65933 11.34893,0.44674 14.44972,6.19053 4.71321,-0.57438 4.46516,-1.78696 3.16281,-3.70155 0.68218,-4.14831 -1.17831,-3.51011 z"
       style="fill:#000000;fill-opacity:1;stroke:none;stroke-width:1.01954484px;stroke-linecap:butt;stroke-linejoin:miter;stroke-opacity:1" />
    <ellipse
       transform="matrix(0.70648954,-0.70772348,0.68147488,0.73184151,0,0)"
       ry="10.679836"
       rx="9.0590401"
       cy="107.29292"
       cx="-26.983273"
       id="path1497-66"
       style="fill:#000000;fill-opacity:1;stroke:none;stroke-width:1.88060665;stroke-miterlimit:4;stroke-dasharray:none;stroke-dashoffset:0;stroke-opacity:1" />
    <ellipse
       transform="matrix(0.66376364,-0.7479424,0.63767466,0.7703058,0,0)"
       ry="13.738732"
       rx="11.606622"
       cy="99.308472"
       cx="1.4623485"
       id="path1497-2-17"
       style="fill:#000000;fill-opacity:1;stroke:none;stroke-width:2.41435337;stroke-miterlimit:4;stroke-dasharray:none;stroke-dashoffset:0;stroke-opacity:1" />
    <ellipse
       transform="matrix(0.94276753,-0.33345073,0.18540152,0.98266285,0,0)"
       ry="13.738732"
       rx="11.606622"
       cy="96.2229"
       cx="75.19632"
       id="path1497-2-4-9"
       style="fill:#000000;fill-opacity:1;stroke:none;stroke-width:2.41435337;stroke-miterlimit:4;stroke-dasharray:none;stroke-dashoffset:0;stroke-opacity:1" />
    <ellipse
       transform="matrix(0.96217295,0.27243938,-0.29990033,0.95397054,0,0)"
       ry="11.106282"
       rx="9.3089647"
       cy="51.204464"
       cx="128.95949"
       id="path1497-6-29"
       style="fill:#000000;fill-opacity:1;stroke:none;stroke-width:1.94405985;stroke-miterlimit:4;stroke-dasharray:none;stroke-dashoffset:0;stroke-opacity:1" />
    <path
       inkscape:connector-curvature="0"
       id="path1546-0"
       d="m 66.416861,108.10766 2.108543,-3.191 0.868223,-3.25482 0.31008,-2.169879 0.31008,-2.2337 0.434112,-1.78696 0.434111,-1.85078 1.116288,-2.36134 2.976767,-2.55281 3.907007,-2.10606 4.899262,-0.82966 5.08531,0.51056 3.286847,2.04224 2.170558,2.16989 1.922496,2.8719 1.364351,1.9146 3.658944,2.5528 5.33336,3.318639 3.28686,2.36134 1.36435,2.99954 0.12403,4.85032 -1.86048,2.61662 -1.98451,2.42517 -3.1008,2.04224 -3.53491,1.65933 -11.348921,0.44674 -14.449722,6.19053 -4.713214,-0.57438 -4.465151,-1.78696 -3.162814,-3.70155 -0.682176,-4.14831 1.178304,-3.51011 z"
       style="fill:#000000;fill-opacity:1;stroke:none;stroke-width:1.01954484px;stroke-linecap:butt;stroke-linejoin:miter;stroke-opacity:1" />
  </g>
</svg>
